<svg width="17" height="17" viewBox="0 0 17 17" fill="none" xmlns="http://www.w3.org/2000/svg">
<path d="M12.0313 11.2926C12.9963 9.97588 13.4285 8.34333 13.2415 6.7216C13.0544 5.09987 12.2619 3.60856 11.0226 2.54603C9.78323 1.48349 8.18838 0.928097 6.55711 0.990952C4.92584 1.05381 3.37845 1.73028 2.22453 2.88503C1.0706 4.03978 0.395237 5.58765 0.333549 7.21896C0.271861 8.85028 0.828398 10.4447 1.89182 11.6833C2.95524 12.9219 4.44711 13.7133 6.06898 13.8992C7.69084 14.0851 9.32308 13.6517 10.6391 12.6858H10.6382C10.668 12.7257 10.6999 12.7636 10.7358 12.8004L14.5725 16.6371C14.7594 16.8241 15.0129 16.9292 15.2773 16.9293C15.5416 16.9294 15.7952 16.8245 15.9822 16.6376C16.1692 16.4508 16.2743 16.1973 16.2744 15.9329C16.2745 15.6686 16.1695 15.415 15.9827 15.228L12.1459 11.3913C12.1103 11.3552 12.072 11.3219 12.0313 11.2916V11.2926ZM12.2884 7.46189C12.2884 8.18167 12.1467 8.8944 11.8712 9.55939C11.5958 10.2244 11.192 10.8286 10.6831 11.3376C10.1741 11.8465 9.5699 12.2503 8.90491 12.5257C8.23992 12.8012 7.52718 12.9429 6.8074 12.9429C6.08762 12.9429 5.37489 12.8012 4.7099 12.5257C4.04491 12.2503 3.44069 11.8465 2.93172 11.3376C2.42276 10.8286 2.01903 10.2244 1.74358 9.55939C1.46814 8.8944 1.32637 8.18167 1.32637 7.46189C1.32637 6.00823 1.90383 4.6141 2.93173 3.58621C3.95962 2.55832 5.35374 1.98085 6.8074 1.98085C8.26107 1.98085 9.65519 2.55832 10.6831 3.58621C11.711 4.6141 12.2884 6.00823 12.2884 7.46189Z" fill="#060A1A"/>
</svg>
