<?xml version="1.0" encoding="UTF-8" standalone="no"?>
<svg
   width="66"
   height="45"
   viewBox="-2 0 66 45"
   fill="none"
   version="1.1"
   id="svg4"
   sodipodi:docname="youtube-play.svg"
   inkscape:version="1.2.2 (732a01da63, 2022-12-09)"
   xmlns:inkscape="http://www.inkscape.org/namespaces/inkscape"
   xmlns:sodipodi="http://sodipodi.sourceforge.net/DTD/sodipodi-0.dtd"
   xmlns="http://www.w3.org/2000/svg"
   xmlns:svg="http://www.w3.org/2000/svg">
  <defs
     id="defs8" />
  <sodipodi:namedview
     id="namedview6"
     pagecolor="#000000"
     bordercolor="#666666"
     borderopacity="1.0"
     inkscape:showpageshadow="2"
     inkscape:pageopacity="0"
     inkscape:pagecheckerboard="0"
     inkscape:deskcolor="#d1d1d1"
     showgrid="false"
     inkscape:zoom="7.6681802"
     inkscape:cx="34.297577"
     inkscape:cy="23.473627"
     inkscape:window-width="1280"
     inkscape:window-height="668"
     inkscape:window-x="-6"
     inkscape:window-y="-6"
     inkscape:window-maximized="1"
     inkscape:current-layer="svg4" />
  <path
     d="m 62.5346,12.7389 -4e-4,-0.0037 C 62.3381,10.677 62.0518,8.73102 61.6582,7.29276 Z m 0,0 0.0402,0.4047 0.0011,0.0118 0.089,1.0214 6e-4,0.0078 0.0319,0.4027 3e-4,0.0033 c 0.2651,3.6207 0.2981,7.0163 0.3023,7.762 v 0.2951 c -0.0042,0.7739 -0.0414,4.4013 -0.3353,8.1728 l -0.032,0.4093 -9e-4,0.0106 -0.0362,0.4049 m -44.9857,12.1072 0.0049,2e-4 0.3486,0.0157 0.0103,4e-4 0.69,0.0236 h 9e-4 C 24.1771,43.976 29.4367,44 30.705,44 h 0.5842 c 1.2557,-0.002 6.4213,-0.025 11.8667,-0.2032 2.7233,-0.0891 5.5082,-0.2168 7.9053,-0.3992 2.4207,-0.1842 4.3708,-0.4195 5.4697,-0.7061 1.2362,-0.3247 2.3596,-0.9582 3.2587,-1.8339 0.8986,-0.8753 1.5416,-1.9615 1.868,-3.1484 0.4335,-1.5844 0.7328,-3.7856 0.938,-6.063 m -44.9857,12.1063 -0.7054,-0.028 -0.7023,-0.0279 h -8e-4 C 11.5881,43.4989 7.34809,43.1829 5.46537,42.6876 l -5.6e-4,-2e-4 M 17.6099,43.7525 5.46481,42.6874 m 0,0 C 4.22903,42.3631 3.106,41.7301 2.20694,40.855 1.30813,39.9802 0.66478,38.8943 0.33785,37.7077 -0.09499,36.129 -0.39412,33.9268 -0.59924,31.651 l -0.03255,-0.4146 -6e-5,-8e-4 m 0,0 -0.03268,-0.4122 m 0.03268,0.4122 -0.03268,-0.4122 m 0,0 c -5e-5,-7e-4 -1.1e-4,-0.0014 -1.6e-4,-0.0021 C -0.86641,28.1325 -0.97824,25.438 -1,22.7422 M -0.66453,30.8234 -1,22.7422 m 0,0 v -0.4836 c 0.00828,-0.8619 0.04138,-3.808 0.26165,-7.055 2e-5,-4e-4 5e-5,-8e-4 7e-5,-0.0011 l 0.02873,-0.4103 h 6e-5 l 6.2e-4,-0.0105 0.01179,-0.1983 0.03191,-0.4027 0.08991,-1.0312 0.04068,-0.4106 3.5e-4,-0.0037 C -0.338,10.6759 -0.05157,8.72571 0.34207,7.29191 m 17.62673,-6.05647 -0.0058,2.4e-4 -0.3548,0.01199 -0.7035,0.0238 -0.0061,2.2e-4 -0.6914,0.02765 c -6e-4,3e-5 -0.0013,5e-5 -0.0019,8e-5 C 11.5952,1.50101 7.35371,1.82068 5.46751,2.30893 4.23191,2.63369 3.10916,3.26707 2.21045,4.14243 1.31162,5.0179 0.66853,6.10441 0.34215,7.29164 M 17.9688,1.23544 18.67,1.20758 C 22.5848,1.08535 26.5012,1.01749 30.418,1.004 M 17.9688,1.23544 30.418,1.004 m 0,0 h 0.7945 c 0.0303,0 0.0604,-0.00135 0.0901,-0.004 h 0.2752 c 1.6935,0.00601 6.823,0.03903 12.1044,0.22112 2.6422,0.0911 5.314,0.21924 7.6087,0.39912 2.3172,0.18164 4.1778,0.41121 5.2403,0.68834 1.2355,0.32576 2.3581,0.95964 3.257,1.83516 0.8989,0.87555 1.5425,1.96186 1.8699,3.14895 M 24.892,11.9811 c -0.3096,-0.1743 -0.6884,-0.1711 -0.9951,0.0082 -0.3067,0.1794 -0.4952,0.508 -0.4952,0.8633 v 19.2908 c 0,0.3553 0.1884,0.6838 0.495,0.8632 0.3066,0.1794 0.6854,0.1826 0.995,0.0085 l 17.1487,-9.6414 c 0.315,-0.1771 0.5099,-0.5102 0.51,-0.8715 0,-0.3613 -0.1948,-0.6945 -0.5097,-0.8717 z"
     stroke="#ffffff"
     stroke-width="2"
     stroke-linejoin="round"
     id="path2"
     sodipodi:nodetypes="cccccccccccccccccccccccsccsccccccccccccccccccccccccccccccccccccccccccccccccccccccccsccsscccccsssccccc" />
</svg>
