<svg xmlns="http://www.w3.org/2000/svg" width="12" height="12" fill="none"><g fill="#fff" opacity=".7"><path d="M10.5 0h-9A1.5 1.5 0 0 0 0 1.5v9A1.5 1.5 0 0 0 1.5 12h9a1.5 1.5 0 0 0 1.5-1.5v-9A1.5 1.5 0 0 0 10.5 0M.75 2.893c0-.355.336-.643.75-.643h9c.414 0 .75.288.75.643v7.714c0 .355-.336.643-.75.643h-9c-.414 0-.75-.288-.75-.643z"/><path d="M4.875 5.25a.75.75 0 1 0 0-1.5.75.75 0 0 0 0 1.5m2.25 0a.75.75 0 1 0 0-1.5.75.75 0 0 0 0 1.5m2.25 0a.75.75 0 1 0 0-1.5.75.75 0 0 0 0 1.5M2.625 7.5a.75.75 0 1 0 0-1.5.75.75 0 0 0 0 1.5m2.25 0a.75.75 0 1 0 0-1.5.75.75 0 0 0 0 1.5m2.25 0a.75.75 0 1 0 0-1.5.75.75 0 0 0 0 1.5m2.25 0a.75.75 0 1 0 0-1.5.75.75 0 0 0 0 1.5m-6.75 2.25a.75.75 0 1 0 0-1.5.75.75 0 0 0 0 1.5m2.25 0a.75.75 0 1 0 0-1.5.75.75 0 0 0 0 1.5m2.25 0a.75.75 0 1 0 0-1.5.75.75 0 0 0 0 1.5"/></g></svg>