<svg width="12" height="12" viewBox="0 0 12 12" fill="none" xmlns="http://www.w3.org/2000/svg">
<g opacity="0.7">
<path d="M10.5 0H1.5C1.10218 0 0.720644 0.158035 0.43934 0.43934C0.158035 0.720644 0 1.10218 0 1.5L0 10.5C0 10.8978 0.158035 11.2794 0.43934 11.5607C0.720644 11.842 1.10218 12 1.5 12H10.5C10.8978 12 11.2794 11.842 11.5607 11.5607C11.842 11.2794 12 10.8978 12 10.5V1.5C12 1.10218 11.842 0.720644 11.5607 0.43934C11.2794 0.158035 10.8978 0 10.5 0V0ZM0.75 2.89275C0.75 2.538 1.086 2.25 1.5 2.25H10.5C10.914 2.25 11.25 2.538 11.25 2.89275V10.6073C11.25 10.962 10.914 11.25 10.5 11.25H1.5C1.086 11.25 0.75 10.962 0.75 10.6073V2.89275Z" fill="white"/>
<path d="M4.87506 5.25C5.07397 5.25 5.26474 5.17098 5.40539 5.03033C5.54604 4.88968 5.62506 4.69891 5.62506 4.5C5.62506 4.30109 5.54604 4.11032 5.40539 3.96967C5.26474 3.82902 5.07397 3.75 4.87506 3.75C4.67615 3.75 4.48538 3.82902 4.34473 3.96967C4.20408 4.11032 4.12506 4.30109 4.12506 4.5C4.12506 4.69891 4.20408 4.88968 4.34473 5.03033C4.48538 5.17098 4.67615 5.25 4.87506 5.25ZM7.12506 5.25C7.32397 5.25 7.51474 5.17098 7.65539 5.03033C7.79604 4.88968 7.87506 4.69891 7.87506 4.5C7.87506 4.30109 7.79604 4.11032 7.65539 3.96967C7.51474 3.82902 7.32397 3.75 7.12506 3.75C6.92615 3.75 6.73538 3.82902 6.59473 3.96967C6.45408 4.11032 6.37506 4.30109 6.37506 4.5C6.37506 4.69891 6.45408 4.88968 6.59473 5.03033C6.73538 5.17098 6.92615 5.25 7.12506 5.25ZM9.37506 5.25C9.57397 5.25 9.76474 5.17098 9.90539 5.03033C10.046 4.88968 10.1251 4.69891 10.1251 4.5C10.1251 4.30109 10.046 4.11032 9.90539 3.96967C9.76474 3.82902 9.57397 3.75 9.37506 3.75C9.17615 3.75 8.98538 3.82902 8.84473 3.96967C8.70408 4.11032 8.62506 4.30109 8.62506 4.5C8.62506 4.69891 8.70408 4.88968 8.84473 5.03033C8.98538 5.17098 9.17615 5.25 9.37506 5.25ZM2.62506 7.5C2.82397 7.5 3.01474 7.42098 3.15539 7.28033C3.29604 7.13968 3.37506 6.94891 3.37506 6.75C3.37506 6.55109 3.29604 6.36032 3.15539 6.21967C3.01474 6.07902 2.82397 6 2.62506 6C2.42615 6 2.23538 6.07902 2.09473 6.21967C1.95408 6.36032 1.87506 6.55109 1.87506 6.75C1.87506 6.94891 1.95408 7.13968 2.09473 7.28033C2.23538 7.42098 2.42615 7.5 2.62506 7.5ZM4.87506 7.5C5.07397 7.5 5.26474 7.42098 5.40539 7.28033C5.54604 7.13968 5.62506 6.94891 5.62506 6.75C5.62506 6.55109 5.54604 6.36032 5.40539 6.21967C5.26474 6.07902 5.07397 6 4.87506 6C4.67615 6 4.48538 6.07902 4.34473 6.21967C4.20408 6.36032 4.12506 6.55109 4.12506 6.75C4.12506 6.94891 4.20408 7.13968 4.34473 7.28033C4.48538 7.42098 4.67615 7.5 4.87506 7.5ZM7.12506 7.5C7.32397 7.5 7.51474 7.42098 7.65539 7.28033C7.79604 7.13968 7.87506 6.94891 7.87506 6.75C7.87506 6.55109 7.79604 6.36032 7.65539 6.21967C7.51474 6.07902 7.32397 6 7.12506 6C6.92615 6 6.73538 6.07902 6.59473 6.21967C6.45408 6.36032 6.37506 6.55109 6.37506 6.75C6.37506 6.94891 6.45408 7.13968 6.59473 7.28033C6.73538 7.42098 6.92615 7.5 7.12506 7.5ZM9.37506 7.5C9.57397 7.5 9.76474 7.42098 9.90539 7.28033C10.046 7.13968 10.1251 6.94891 10.1251 6.75C10.1251 6.55109 10.046 6.36032 9.90539 6.21967C9.76474 6.07902 9.57397 6 9.37506 6C9.17615 6 8.98538 6.07902 8.84473 6.21967C8.70408 6.36032 8.62506 6.55109 8.62506 6.75C8.62506 6.94891 8.70408 7.13968 8.84473 7.28033C8.98538 7.42098 9.17615 7.5 9.37506 7.5ZM2.62506 9.75C2.82397 9.75 3.01474 9.67098 3.15539 9.53033C3.29604 9.38968 3.37506 9.19891 3.37506 9C3.37506 8.80109 3.29604 8.61032 3.15539 8.46967C3.01474 8.32902 2.82397 8.25 2.62506 8.25C2.42615 8.25 2.23538 8.32902 2.09473 8.46967C1.95408 8.61032 1.87506 8.80109 1.87506 9C1.87506 9.19891 1.95408 9.38968 2.09473 9.53033C2.23538 9.67098 2.42615 9.75 2.62506 9.75ZM4.87506 9.75C5.07397 9.75 5.26474 9.67098 5.40539 9.53033C5.54604 9.38968 5.62506 9.19891 5.62506 9C5.62506 8.80109 5.54604 8.61032 5.40539 8.46967C5.26474 8.32902 5.07397 8.25 4.87506 8.25C4.67615 8.25 4.48538 8.32902 4.34473 8.46967C4.20408 8.61032 4.12506 8.80109 4.12506 9C4.12506 9.19891 4.20408 9.38968 4.34473 9.53033C4.48538 9.67098 4.67615 9.75 4.87506 9.75ZM7.12506 9.75C7.32397 9.75 7.51474 9.67098 7.65539 9.53033C7.79604 9.38968 7.87506 9.19891 7.87506 9C7.87506 8.80109 7.79604 8.61032 7.65539 8.46967C7.51474 8.32902 7.32397 8.25 7.12506 8.25C6.92615 8.25 6.73538 8.32902 6.59473 8.46967C6.45408 8.61032 6.37506 8.80109 6.37506 9C6.37506 9.19891 6.45408 9.38968 6.59473 9.53033C6.73538 9.67098 6.92615 9.75 7.12506 9.75Z" fill="white"/>
</g>
</svg>
