<svg width="20" height="12" viewBox="0 0 20 12" fill="none" xmlns="http://www.w3.org/2000/svg">
<path fill-rule="evenodd" clip-rule="evenodd" d="M0.220341 0.968875C0.290009 0.899031 0.372773 0.843616 0.46389 0.805806C0.555008 0.767997 0.65269 0.748535 0.751341 0.748535C0.849992 0.748535 0.947674 0.767997 1.03879 0.805806C1.12991 0.843616 1.21267 0.899031 1.28234 0.968875L9.75134 9.43938L18.2203 0.968875C18.2901 0.899144 18.3729 0.843829 18.464 0.80609C18.5551 0.768352 18.6527 0.748928 18.7513 0.748928C18.85 0.748928 18.9476 0.768352 19.0387 0.80609C19.1298 0.843829 19.2126 0.899144 19.2823 0.968875C19.3521 1.03861 19.4074 1.12139 19.4451 1.2125C19.4829 1.30361 19.5023 1.40126 19.5023 1.49988C19.5023 1.59849 19.4829 1.69614 19.4451 1.78725C19.4074 1.87836 19.3521 1.96114 19.2823 2.03088L10.2823 11.0309C10.2127 11.1007 10.1299 11.1561 10.0388 11.1939C9.94767 11.2318 9.84999 11.2512 9.75134 11.2512C9.65269 11.2512 9.55501 11.2318 9.46389 11.1939C9.37277 11.1561 9.29001 11.1007 9.22034 11.0309L0.220341 2.03088C0.150496 1.96121 0.0950816 1.87844 0.057272 1.78733C0.0194623 1.69621 0 1.59853 0 1.49988C0 1.40122 0.0194623 1.30354 0.057272 1.21243C0.0950816 1.12131 0.150496 1.03854 0.220341 0.968875Z" fill="#747F85"/>
</svg>
