<svg xmlns="http://www.w3.org/2000/svg" width="34" height="26" fill="none"><circle cx="5.447" cy="5.447" r="5.447" stroke="#fff" stroke-width="2" transform="matrix(-1 0 0 1 22.788 1)"/><path stroke="#fff" stroke-width="2" d="M7.809 19.975c0-1.171.736-2.216 1.84-2.61a22.87 22.87 0 0 1 15.384 0 2.77 2.77 0 0 1 1.84 2.61v1.792a2.657 2.657 0 0 1-3.033 2.63l-.534-.076a42.2 42.2 0 0 0-11.93 0l-.535.076a2.657 2.657 0 0 1-3.032-2.63z"/><path stroke="#fff" stroke-linecap="round" stroke-width="2" d="M25.51 12.045a4.28 4.28 0 0 0 0-8.56m4.688 18.323.419.06A2.088 2.088 0 0 0 33 19.802v-1.408c0-.92-.579-1.742-1.446-2.051a18 18 0 0 0-2.64-.722M8.49 12.045a4.28 4.28 0 1 1 0-8.56M3.802 21.808l-.419.06A2.088 2.088 0 0 1 1 19.802v-1.408c0-.92.579-1.742 1.446-2.051.864-.309 1.747-.55 2.64-.722"/></svg>