<svg xmlns="http://www.w3.org/2000/svg" width="31" height="32" fill="none"><circle cx="4.429" cy="4.429" r="4.429" stroke="#fff" stroke-width="2" transform="matrix(-1 0 0 1 19.505 11.334)"/><path fill="#fff" d="m21.72 5.336.5-.866zm0 20.851.5.866zm-13.286 0-.5.866zm0-20.85-.5-.867zm2.153-3.101.986.166zm-9.18 9.917-.581.815zm-.37-.964-.951-.309zm3.908 14.592.288.958zm-.907-.218-.748.665zm7.147 4.443.263-.965zm-.598-.718.986-.166zm8.98 0 .986.166zm-.599.718-.262-.965zm7.148-4.443-.748-.664zm-.908.218.288-.958zm3.909-14.592-.951.31zm-28.08 9.146-.951.309zm.37-.964-.581-.815zM26.114 5.96l-.747.664zm-21.17-.219-.287.958zm14.622-3.506-.986.166zm-.598-.718-.263.965zm-.388.884a5.42 5.42 0 0 0 2.639 3.8l1-1.732a3.42 3.42 0 0 1-1.667-2.4zm2.639 3.8a5.42 5.42 0 0 0 4.275.498l-.575-1.915a3.42 3.42 0 0 1-2.7-.315zm8.848 4.678a15.7 15.7 0 0 0-3.205-5.584l-1.495 1.329a13.75 13.75 0 0 1 2.798 4.874zm-2.182 4.882a3.42 3.42 0 0 1 1.442-2.794l-1.161-1.63a5.42 5.42 0 0 0-2.28 4.424zm1.442 2.794a3.42 3.42 0 0 1-1.442-2.794h-2c0 1.826.902 3.44 2.28 4.423zm-2.465 7.671a15.7 15.7 0 0 0 3.205-5.583l-1.902-.619a13.75 13.75 0 0 1-2.798 4.874zm-4.643.826a3.42 3.42 0 0 1 2.7-.314l.576-1.916a5.42 5.42 0 0 0-4.276.498zm-1.667 2.401a3.42 3.42 0 0 1 1.667-2.4l-1-1.733a5.42 5.42 0 0 0-2.64 3.8zm-5.476 2.07c1.436 0 2.83-.193 4.155-.554l-.526-1.93a13.8 13.8 0 0 1-3.63.484zm-4.155-.553a15.8 15.8 0 0 0 4.155.553v-2a13.8 13.8 0 0 1-3.629-.483zm-2.988-3.918A3.42 3.42 0 0 1 9.6 29.454l1.972-.332a5.42 5.42 0 0 0-2.64-3.8zm-2.701-.314a3.42 3.42 0 0 1 2.7.314l1-1.732a5.42 5.42 0 0 0-4.275-.498zM.086 20.644a15.75 15.75 0 0 0 3.204 5.584l1.495-1.329a13.7 13.7 0 0 1-2.798-4.874zm2.181-4.882a3.42 3.42 0 0 1-1.441 2.794l1.16 1.63a5.42 5.42 0 0 0 2.281-4.424zM.826 12.968a3.42 3.42 0 0 1 1.441 2.794h2c0-1.826-.902-3.44-2.28-4.423zM3.29 5.296A15.7 15.7 0 0 0 .086 10.88l1.901.619a13.75 13.75 0 0 1 2.799-4.874zm4.643-.826a3.42 3.42 0 0 1-2.7.315L4.657 6.7a5.4 5.4 0 0 0 4.276-.498zM9.6 2.07a3.42 3.42 0 0 1-1.667 2.4l1 1.732a5.42 5.42 0 0 0 2.639-3.8zM15.077 0c-1.437 0-2.83.192-4.155.554l.526 1.93A13.8 13.8 0 0 1 15.077 2zm4.155.554A15.8 15.8 0 0 0 15.077 0v2c1.257 0 2.474.168 3.629.483zm-7.659 1.848c.002-.01.004-.006-.009.01a.23.23 0 0 1-.116.071l-.526-1.93c-.787.215-1.216.896-1.321 1.516zM1.986 11.34c-.01-.008-.006-.01.001.008q.009.018.013.06a.3.3 0 0 1-.013.092l-1.901-.62c-.286.878.17 1.681.74 2.088zm2.672 13.484c-.01.003-.008 0 .012.004a.23.23 0 0 1 .115.072L3.29 26.228c.542.609 1.34.692 1.943.51zm6.79 4.218a.23.23 0 0 1 .117.071c.013.016.01.02.008.01l-1.972.332c.105.621.534 1.302 1.321 1.517zm7.133.08c-.002.011-.005.007.008-.009a.23.23 0 0 1 .117-.071l.526 1.93c.787-.215 1.216-.896 1.32-1.517zm6.787-4.222a.23.23 0 0 1 .115-.072c.02-.005.023 0 .013-.004l-.575 1.916c.602.18 1.401.098 1.942-.512zm2.798-13.4a.3.3 0 0 1-.012-.092.2.2 0 0 1 .012-.06c.008-.018.011-.016 0-.008l1.162 1.629c.57-.406 1.026-1.21.74-2.088zM1.987 20.025q.015.047.013.092a.2.2 0 0 1-.013.06c-.007.018-.011.016 0 .008L.825 18.556c-.57.406-1.026 1.21-.74 2.088zM25.495 6.7c.01-.003.008.001-.012-.003a.23.23 0 0 1-.115-.072l1.495-1.329c-.541-.609-1.34-.692-1.943-.511zm-20.71-.075a.23.23 0 0 1-.114.072c-.02.004-.023 0-.013.003l.575-1.915c-.603-.181-1.401-.098-1.942.511zm23.382 13.56c.01.008.007.01-.001-.008a.2.2 0 0 1-.012-.06.3.3 0 0 1 .012-.092l1.902.619c.286-.878-.17-1.681-.74-2.088zM20.553 2.07c-.105-.62-.534-1.3-1.321-1.515l-.526 1.93a.23.23 0 0 1-.117-.072c-.013-.016-.01-.02-.008-.01z"/></svg>