<svg xmlns="http://www.w3.org/2000/svg" width="33" height="33" fill="none"><path fill="#fff" d="m26.108 17.485-.733-.68zM15.444 6.821l.68.733zm15.728-2.21.991.13zm-2.854-2.853.13.992zM8.299 17.247l.899.44zm7.385 7.384-.44-.898zM10.82 13.579a1 1 0 0 0-1.415 1.414zm7.116 9.945a1 1 0 0 0 1.415-1.414zM8.154 26.19a1 1 0 1 0-1.415-1.414zm-5.68 2.852a1 1 0 1 0 1.414 1.414zm2.48-6.05a1 1 0 1 0-1.414-1.415zm-3.547.718a1 1 0 1 0 1.414 1.414zm9.946 5.68a1 1 0 0 0-1.415-1.415zm-3.547.718a1 1 0 1 0 1.414 1.414zm6.679-.146.99-.141zm7.784-5.225.99-.142zM2.967 18.445l.142-.99zm5.226-7.785-.142.99zm4.923 12.68L9.59 19.814l-1.414 1.415 3.527 3.527zm12.26-6.535c-2.874 3.099-7.53 5.652-10.133 6.928l.88 1.796c2.623-1.286 7.574-3.974 10.719-7.364zm-16.18.882c1.277-2.603 3.83-7.259 6.928-10.133l-1.36-1.466c-3.39 3.144-6.077 8.095-7.363 10.718zM30.18 4.48c-.459 3.507-1.68 8.955-4.805 12.324l1.467 1.36c3.582-3.863 4.856-9.87 5.321-13.424zM16.124 7.554c3.37-3.125 8.817-4.346 12.324-4.804l-.26-1.984c-3.554.465-9.56 1.74-13.424 5.322zm16.04-2.813A3.508 3.508 0 0 0 28.188.766l.26 1.984c1.045-.137 1.868.685 1.731 1.731zM9.588 19.813c-.585-.584-.733-1.432-.392-2.126l-1.796-.88c-.74 1.51-.377 3.27.774 4.42zm2.113 4.942c1.151 1.15 2.911 1.514 4.421.774l-.88-1.796c-.694.34-1.542.192-2.127-.392zm-2.297-9.762 8.532 8.531 1.414-1.414-8.531-8.531zM6.74 24.776l-4.265 4.266 1.414 1.414 4.265-4.266zm-3.199-3.2L1.407 23.71l1.414 1.414 2.133-2.133zm6.398 6.4-2.132 2.132 1.414 1.414 2.133-2.132zM18.47 8.78a4.016 4.016 0 0 0 0 5.68l1.414-1.414a2.016 2.016 0 0 1 0-2.852zm0 5.68a4.016 4.016 0 0 0 5.68 0l-1.415-1.414a2.016 2.016 0 0 1-2.851 0zm5.68 0a4.016 4.016 0 0 0 0-5.68l-1.415 1.414a2.016 2.016 0 0 1 0 2.852zm0-5.68a4.016 4.016 0 0 0-5.68 0l1.414 1.414a2.016 2.016 0 0 1 2.851 0zm-3.014 16.53-4.8 4.798 1.415 1.414 4.799-4.798zm-5.661 4.51-.64-4.478-1.98.283.64 4.479zm5.378-7.928.426 2.986 1.98-.283-.426-2.986zm-4.516 8.216a.508.508 0 0 1-.862-.287l-1.98.282c.292 2.047 2.795 2.88 4.256 1.42zm6.213-3.384a2.5 2.5 0 0 0 .71-2.129l-1.98.283a.5.5 0 0 1-.144.431zM6.206 10.38l-4.799 4.798 1.414 1.415 4.8-4.8zm-3.38 9.055 4.479.64.283-1.98-4.48-.64zm8.494-9.338L8.334 9.67l-.283 1.98 2.986.427zm-9.913 5.082c-1.461 1.461-.627 3.964 1.42 4.256l.282-1.98a.508.508 0 0 1-.288-.862zm6.213-3.385a.5.5 0 0 1 .431-.144l.283-1.98a2.5 2.5 0 0 0-2.128.71z"/></svg>