<svg xmlns="http://www.w3.org/2000/svg" width="31" height="25" fill="none"><path fill="#fff" d="m1.317 8.988-.288.958zm0 6.823-.288-.957zm27.866 0-.289.958zm0-6.823.288.958zM5 0a5 5 0 0 0-5 5h2a3 3 0 0 1 3-3zm20.5 0H5v2h20.5zm5 5a5 5 0 0 0-5-5v2a3 3 0 0 1 3 3zm0 3.582V5h-2v3.582zM27.65 12.4c0-1.156.767-2.136 1.822-2.454l-.578-1.915A4.56 4.56 0 0 0 25.65 12.4zm1.822 2.454A2.56 2.56 0 0 1 27.65 12.4h-2a4.56 4.56 0 0 0 3.244 4.369zM30.5 19.8v-3.582h-2V19.8zm-5 5a5 5 0 0 0 5-5h-2a3 3 0 0 1-3 3zM5 24.8h20.5v-2H5zm-5-5a5 5 0 0 0 5 5v-2a3 3 0 0 1-3-3zm0-3.582V19.8h2v-3.582zm1.606.55A4.56 4.56 0 0 0 4.85 12.4h-2a2.56 2.56 0 0 1-1.821 2.454zM4.85 12.4a4.56 4.56 0 0 0-3.244-4.37l-.577 1.916A2.56 2.56 0 0 1 2.85 12.4zM0 5v3.582h2V5zm1.606 3.03A.57.57 0 0 1 2 8.583H0c0 .684.477 1.198 1.029 1.364zM2 16.219a.57.57 0 0 1-.394.55l-.577-1.914C.477 15.02 0 15.534 0 16.218zm26.894.55a.57.57 0 0 1-.394-.55h2c0-.684-.477-1.198-1.029-1.364zM28.5 8.583c0-.304.207-.495.394-.551l.578 1.915c.55-.166 1.028-.68 1.028-1.364z"/><path stroke="#fff" stroke-width="2" d="M14.851 7.228a.5.5 0 0 1 .798 0l1.62 2.145a.5.5 0 0 0 .236.172l2.54.877a.5.5 0 0 1 .247.76l-1.54 2.203a.5.5 0 0 0-.09.277l-.05 2.687a.5.5 0 0 1-.645.47l-2.571-.784a.5.5 0 0 0-.292 0l-2.571.784a.5.5 0 0 1-.646-.47l-.05-2.687a.5.5 0 0 0-.09-.277l-1.539-2.204a.5.5 0 0 1 .247-.759l2.54-.878a.5.5 0 0 0 .236-.17z"/></svg>