<svg width="20" height="20" viewBox="0 0 20 20" fill="none" xmlns="http://www.w3.org/2000/svg">
<path fill-rule="evenodd" clip-rule="evenodd" d="M7.66344 17.8563C7.66344 18.0458 7.73869 18.2274 7.87264 18.3614C8.00659 18.4953 8.18826 18.5706 8.3777 18.5706H17.8573C18.4256 18.5706 18.9706 18.3448 19.3724 17.943C19.7743 17.5411 20 16.9961 20 16.4278V2.14276C20 1.57447 19.7743 1.02945 19.3724 0.6276C18.9706 0.225755 18.4256 0 17.8573 0H3.5722C3.0039 0 2.45888 0.225755 2.05704 0.6276C1.65519 1.02945 1.42944 1.57447 1.42944 2.14276V11.6223C1.42944 11.8118 1.50469 11.9934 1.63864 12.1274C1.77259 12.2613 1.95426 12.3366 2.14369 12.3366C2.33312 12.3366 2.5148 12.2613 2.64874 12.1274C2.78269 11.9934 2.85794 11.8118 2.85794 11.6223V2.14276C2.85794 1.95333 2.9332 1.77166 3.06714 1.63771C3.20109 1.50376 3.38277 1.42851 3.5722 1.42851H17.8573C18.0467 1.42851 18.2284 1.50376 18.3623 1.63771C18.4963 1.77166 18.5715 1.95333 18.5715 2.14276V16.4278C18.5715 16.6173 18.4963 16.7989 18.3623 16.9329C18.2284 17.0668 18.0467 17.1421 17.8573 17.1421H8.3777C8.18826 17.1421 8.00659 17.2173 7.87264 17.3513C7.73869 17.4852 7.66344 17.6669 7.66344 17.8563Z" fill="#FF0033"/>
<path fill-rule="evenodd" clip-rule="evenodd" d="M14.286 6.42828C14.286 6.23885 14.2107 6.05718 14.0768 5.92323C13.9428 5.78928 13.7612 5.71403 13.5717 5.71403H6.42918C6.23975 5.71403 6.05808 5.78928 5.92413 5.92323C5.79018 6.05718 5.71493 6.23885 5.71493 6.42828C5.71493 6.61771 5.79018 6.79939 5.92413 6.93334C6.05808 7.06728 6.23975 7.14254 6.42918 7.14254H11.8475L0.209464 18.7792C0.0753466 18.9133 0 19.0952 0 19.2848C0 19.4745 0.0753466 19.6564 0.209464 19.7905C0.343582 19.9247 0.525485 20 0.715156 20C0.904827 20 1.08673 19.9247 1.22085 19.7905L12.8575 8.15249V13.5708C12.8575 13.7602 12.9327 13.9419 13.0667 14.0759C13.2006 14.2098 13.3823 14.2851 13.5717 14.2851C13.7612 14.2851 13.9428 14.2098 14.0768 14.0759C14.2107 13.9419 14.286 13.7602 14.286 13.5708V6.42828Z" fill="#FF0033"/>
</svg>
