<svg xmlns="http://www.w3.org/2000/svg" width="20" height="20" fill="none"><path fill="#F03" fill-rule="evenodd" d="M7.663 17.856a.714.714 0 0 0 .715.715h9.48A2.143 2.143 0 0 0 20 16.428V2.143A2.143 2.143 0 0 0 17.857 0H3.572A2.143 2.143 0 0 0 1.43 2.143v9.48a.714.714 0 1 0 1.429 0v-9.48a.714.714 0 0 1 .714-.714h14.285a.714.714 0 0 1 .715.714v14.285a.714.714 0 0 1-.715.714h-9.48a.714.714 0 0 0-.714.714" clip-rule="evenodd"/><path fill="#F03" fill-rule="evenodd" d="M14.286 6.428a.714.714 0 0 0-.714-.714H6.429a.714.714 0 1 0 0 1.429h5.419L.209 18.779a.715.715 0 1 0 1.012 1.012L12.858 8.152v5.419a.714.714 0 1 0 1.428 0z" clip-rule="evenodd"/></svg>