<svg xmlns="http://www.w3.org/2000/svg" width="24" height="24" fill="none"><path fill="#747F85" fill-rule="evenodd" d="M2.828.765a2.618 2.618 0 0 1 3.916.245l2.692 3.459c.494.634.668 1.461.473 2.241l-.82 3.285a1.02 1.02 0 0 0 .266.965l3.686 3.685a1.02 1.02 0 0 0 .966.267l3.284-.82a2.62 2.62 0 0 1 2.24.472l3.46 2.692a2.617 2.617 0 0 1 .244 3.916l-1.55 1.551c-1.11 1.11-2.77 1.598-4.316 1.053a27.95 27.95 0 0 1-10.516-6.63A27.95 27.95 0 0 1 .223 6.632C-.32 5.087.167 3.426 1.277 2.316z" clip-rule="evenodd"/></svg>