<svg xmlns="http://www.w3.org/2000/svg" width="24" height="24" fill="none"><path fill="#F03" d="M3.257 11.512c1.739-.952 3.68-1.747 5.494-2.547 3.12-1.308 6.254-2.595 9.419-3.792.615-.204 1.721-.403 1.83.504-.06 1.284-.304 2.561-.471 3.838-.426 2.807-.918 5.606-1.397 8.404-.165.933-1.34 1.415-2.091.818-1.806-1.212-3.626-2.414-5.408-3.655-.584-.59-.043-1.437.479-1.858 1.487-1.458 3.065-2.696 4.474-4.23.38-.912-.743-.143-1.114.093-2.036 1.395-4.022 2.876-6.17 4.102-1.096.6-2.374.087-3.47-.248-.983-.404-2.423-.812-1.575-1.429"/></svg>