<svg xmlns="http://www.w3.org/2000/svg" width="24" height="24" fill="none"><path fill="#F03" fill-rule="evenodd" d="M22.482 6.833c.163-.47 0-.812-.722-.812h-2.4c-.606 0-.885.3-1.048.62 0 0-1.235 2.733-2.96 4.505-.559.512-.815.683-1.118.683-.163 0-.373-.17-.373-.64V6.81c0-.555-.186-.811-.699-.811H9.388c-.373 0-.606.256-.606.512 0 .534.862.662.955 2.157v3.246c0 .704-.14.832-.442.832-.816 0-2.796-2.754-3.985-5.893C5.077 6.234 4.844 6 4.24 6H1.815C1.117 6 1 6.299 1 6.62c0 .576.815 3.48 3.798 7.323 1.98 2.626 4.8 4.036 7.34 4.036 1.537 0 1.723-.32 1.723-.854v-1.986c0-.64.14-.747.63-.747.349 0 .978.17 2.4 1.43C18.52 17.317 18.8 18 19.71 18h2.4c.698 0 1.025-.32.838-.94-.21-.619-1.002-1.515-2.027-2.583-.559-.598-1.398-1.26-1.654-1.58-.35-.427-.256-.598 0-.982-.023 0 2.912-3.801 3.215-5.082" clip-rule="evenodd"/></svg>