<svg xmlns="http://www.w3.org/2000/svg" width="24" height="24" fill="none"><path fill="#F03" fill-rule="evenodd" d="m4.605 19.506 3.028-.794.292.173A8 8 0 0 0 11.997 20H12c4.41 0 7.998-3.587 8-7.997 0-2.137-.83-4.146-2.34-5.658A7.95 7.95 0 0 0 12.002 4c-4.411 0-8 3.587-8.002 7.996a8 8 0 0 0 1.223 4.256l.19.303zm11.915-5.431c.168.081.28.136.33.216.06.1.06.582-.141 1.144s-1.161 1.074-1.623 1.143c-.415.062-.94.088-1.515-.095-.35-.111-.797-.26-1.371-.507-2.255-.973-3.778-3.158-4.066-3.57l-.043-.06-.002-.003c-.127-.17-.98-1.307-.98-2.484 0-1.107.545-1.688.795-1.955l.047-.05c.22-.241.481-.301.641-.301s.321.001.461.008h.054c.14 0 .315-.001.487.413l.266.644c.207.504.436 1.06.476 1.14.06.121.1.262.02.422l-.034.069c-.06.122-.104.213-.206.332l-.124.148c-.082.1-.165.202-.237.273-.12.12-.246.25-.106.49.14.242.623 1.029 1.338 1.666.769.686 1.437.975 1.775 1.122q.1.043.16.072c.24.12.38.1.52-.06.14-.161.601-.703.762-.943.16-.24.32-.2.54-.12s1.404.661 1.644.782z" clip-rule="evenodd"/></svg>