<svg xmlns="http://www.w3.org/2000/svg" width="66" height="45" fill="none" viewBox="-2 0 66 45"><path stroke="#fff" stroke-linejoin="round" stroke-width="2" d="M62.535 12.739v-.004c-.197-2.058-.483-4.004-.877-5.442Zm0 0 .04.405v.011l.09 1.022v.008l.032.402v.004c.266 3.62.299 7.016.303 7.762v.295c-.004.774-.041 4.401-.335 8.172l-.032.41-.001.01-.036.405M17.61 43.753h.005l.348.015h.01l.69.024h.002a407 407 0 0 0 12.04.208h.584c1.256-.002 6.421-.025 11.867-.203 2.723-.09 5.508-.217 7.905-.4 2.42-.184 4.371-.419 5.47-.706a7.34 7.34 0 0 0 3.259-1.833 7 7 0 0 0 1.868-3.149c.433-1.584.732-3.785.938-6.063M17.61 43.752l-.705-.028-.703-.027c-4.614-.198-8.854-.514-10.737-1.01m12.145 1.066L5.465 42.686m0 0a7.34 7.34 0 0 1-3.258-1.832 7 7 0 0 1-1.87-3.147c-.432-1.579-.731-3.781-.936-6.057l-.033-.415m0 0-.033-.413m.033.413-.033-.413m0 0v-.002A121 121 0 0 1-1 22.742m.335 8.081L-1 22.743m0 0v-.484c.008-.862.041-3.808.262-7.055v-.001l.028-.41.001-.011.012-.199.032-.402.09-1.031.04-.411v-.004c.197-2.06.483-4.01.877-5.443M17.97 1.235h-.006l-.355.013-.703.023H16.9l-.692.028h-.002c-4.61.202-8.851.522-10.737 1.01A7.34 7.34 0 0 0 2.21 4.142a7 7 0 0 0-1.868 3.15M17.97 1.235l.701-.027q5.872-.184 11.748-.204m-12.45.231 12.45-.231m0 0h.795q.045 0 .09-.004h.275c1.693.006 6.823.039 12.104.221 2.642.091 5.314.22 7.609.4 2.317.18 4.178.41 5.24.688a7.35 7.35 0 0 1 3.257 1.835 7 7 0 0 1 1.87 3.149M24.892 11.98a1 1 0 0 0-1.49.872v19.29a1 1 0 0 0 1.49.872l17.148-9.641a1 1 0 0 0 0-1.744z"/></svg>