<svg xmlns="http://www.w3.org/2000/svg" width="18" height="12" fill="none"><path fill="#F03" d="M8.857 0h.098c.904.003 5.486.035 6.721.358.373.098.714.29.987.556s.47.597.57.96c.11.406.189.943.242 1.497l.01.11.025.278.009.111c.071.976.08 1.89.081 2.09v.08a33 33 0 0 1-.09 2.2l-.009.112-.01.11c-.055.611-.136 1.218-.258 1.664a2.13 2.13 0 0 1-.57.96 2.2 2.2 0 0 1-.987.556C14.4 11.975 9.55 12 8.878 12H8.72c-.34 0-1.745-.006-3.22-.056l-.187-.006-.095-.004-.188-.008-.188-.007c-1.222-.053-2.384-.137-2.92-.278a2.2 2.2 0 0 1-.987-.555 2.13 2.13 0 0 1-.57-.96C.244 9.681.163 9.073.108 8.463L.099 8.35.09 8.24A33 33 0 0 1 0 6.066v-.132c.002-.23.011-1.023.07-1.898l.008-.11.003-.056.01-.11.023-.278.011-.111c.053-.554.131-1.093.242-1.497.1-.363.297-.694.57-.96s.613-.458.987-.556C2.46.218 3.623.133 4.844.08L5.03.073l.19-.007.094-.003.189-.007Q7.073.006 8.644 0zM7.04 3.427v5.145L11.613 6z"/></svg>